<svg width="49" height="47" viewBox="0 0 49 47" fill="none" xmlns="http://www.w3.org/2000/svg">
<path fill-rule="evenodd" clip-rule="evenodd" d="M12.5695 3.02182C12.5695 3.02182 23.131 -3.73123 36.0874 2.9531C36.0874 2.9531 51.1444 12.2189 45.6084 23.6736C45.6084 23.6736 41.4663 31.3689 32.6717 26.736C32.6717 26.736 28.1074 24.1447 28.8534 16.2825C29.6092 8.27311 23.2684 4.65119 23.2684 4.65119C23.2684 4.65119 18.1251 1.4808 12.5695 3.02182ZM12.1475 40.1047C11.2052 38.9367 10.1451 31.0549 16.2503 28.5813C16.2503 28.5813 21.1581 26.1275 27.3026 30.4561C32.8778 34.3921 40.367 31.3395 40.367 31.3395C40.367 31.3395 47.6697 27.8157 48.0819 22.4466C48.0819 22.4466 48.4157 37.2386 34.036 44.3941C34.036 44.3941 22.1887 49.665 14.6897 43.5597L12.1475 40.1047ZM12.8345 43.6383C12.8345 43.6383 -0.661749 36.7576 0.0253741 22.3093C0.0253741 22.3093 0.231473 6.15295 13.8652 4.18004C13.8652 4.18004 23.7494 3.42425 23.3371 13.9955C23.3371 13.9955 23.0525 20.7584 15.9068 22.3779C7.18086 24.3508 8.27036 33.1455 8.27036 33.1455C8.27036 33.1455 8.6139 39.7612 12.8345 43.6383Z" fill="#1C5394"/>
</svg>