<svg viewBox="0 0 24 25" fill="none" xmlns="http://www.w3.org/2000/svg">
<path fill-rule="evenodd" clip-rule="evenodd" d="M13.4034 9.78493H10.7572V12.4311H13.4034V9.78493ZM18.6959 9.78493H16.0496V12.4311H18.6959V9.78493ZM22.6652 17.3613C21.0179 17.3613 19.4302 17.0967 17.9417 16.6072C17.4852 16.4616 16.9626 16.5675 16.5987 16.9313L13.6879 19.8488C9.93689 17.9435 6.88051 14.8805 4.96862 11.1361L7.87946 8.21868C8.24331 7.85482 8.34916 7.33219 8.20362 6.87572C7.71407 5.38723 7.44945 3.79288 7.44945 2.14562C7.44945 1.41129 6.86067 0.82251 6.12634 0.82251H1.49547C0.761146 0.82251 0.172363 1.41129 0.172363 2.14562C0.172363 14.5696 10.2412 24.6384 22.6652 24.6384C23.3995 24.6384 23.9883 24.0496 23.9883 23.3153V18.6844C23.9883 17.9501 23.3995 17.3613 22.6652 17.3613ZM21.3421 9.78493V12.4311H23.9883V9.78493H21.3421Z" fill="#4A90E2"/>
</svg>