<svg viewBox="0 0 25 26" fill="none" xmlns="http://www.w3.org/2000/svg">
<path d="M18.1522 16.2272L17.0916 17.2879L18.1522 16.2272ZM16.0309 16.2272L14.9702 15.1665L16.0309 16.2272ZM22.904 20.979L23.9647 19.9183V19.9183L22.904 20.979ZM22.904 23.1003L23.9647 24.161L22.904 23.1003ZM20.7827 23.1003L19.722 24.161H19.7221L20.7827 23.1003ZM16.0309 18.3485L17.0916 17.2879L16.0309 18.3485ZM11.1243 0.233398C5.00103 0.233398 0.0371094 5.19732 0.0371094 11.3206H3.03711C3.03711 6.85417 6.65788 3.2334 11.1243 3.2334V0.233398ZM22.2115 11.3206C22.2115 5.19732 17.2476 0.233398 11.1243 0.233398V3.2334C15.5908 3.2334 19.2115 6.85417 19.2115 11.3206H22.2115ZM11.1243 22.4078C17.2476 22.4078 22.2115 17.4439 22.2115 11.3206H19.2115C19.2115 15.7871 15.5908 19.4078 11.1243 19.4078V22.4078ZM0.0371094 11.3206C0.0371094 17.4439 5.00103 22.4078 11.1243 22.4078V19.4078C6.65788 19.4078 3.03711 15.7871 3.03711 11.3206H0.0371094ZM6.03711 11.3206C6.03711 8.51102 8.31473 6.2334 11.1243 6.2334V3.2334C6.65788 3.2334 3.03711 6.85417 3.03711 11.3206H6.03711ZM11.1243 16.4078C8.31473 16.4078 6.03711 14.1302 6.03711 11.3206H3.03711C3.03711 15.7871 6.65788 19.4078 11.1243 19.4078V16.4078ZM16.2115 11.3206C16.2115 14.1302 13.9339 16.4078 11.1243 16.4078V19.4078C15.5908 19.4078 19.2115 15.7871 19.2115 11.3206H16.2115ZM11.1243 6.2334C13.9339 6.2334 16.2115 8.51102 16.2115 11.3206H19.2115C19.2115 6.85417 15.5908 3.2334 11.1243 3.2334V6.2334ZM19.2129 15.1665C18.0413 13.995 16.1418 13.995 14.9702 15.1665L17.0916 17.2879L19.2129 15.1665ZM23.9647 19.9183L19.2129 15.1665L17.0916 17.2879L21.8434 22.0397L23.9647 19.9183ZM23.9647 24.161C25.1363 22.9894 25.1363 21.0899 23.9647 19.9183L21.8434 22.0397V22.0397L23.9647 24.161ZM19.7221 24.161C20.8936 25.3326 22.7931 25.3326 23.9647 24.161L21.8434 22.0397H21.8434L19.7221 24.161ZM14.9702 19.4092L19.722 24.161L21.8434 22.0397L17.0916 17.2879L14.9702 19.4092ZM14.9702 15.1665C13.7987 16.3381 13.7987 18.2376 14.9702 19.4092L17.0916 17.2879L14.9702 15.1665Z" fill="#37B370"/>
</svg>